<svg width="17" height="16" viewBox="0 0 17 16" fill="none" xmlns="http://www.w3.org/2000/svg">
<path opacity="0.3" d="M0.999756 7C0.447471 7 -0.000244141 7.44772 -0.000244141 8C-0.000244141 8.55228 0.447471 9 0.999756 9V7ZM16.7069 8.70711C17.0974 8.31658 17.0974 7.68342 16.7069 7.29289L10.3429 0.928932C9.95238 0.538408 9.31921 0.538408 8.92869 0.928932C8.53816 1.31946 8.53816 1.95262 8.92869 2.34315L14.5855 8L8.92869 13.6569C8.53816 14.0474 8.53816 14.6805 8.92869 15.0711C9.31921 15.4616 9.95238 15.4616 10.3429 15.0711L16.7069 8.70711ZM0.999756 9H15.9998V7H0.999756V9Z" fill="#1B1B1D"/>
</svg>
