<svg xmlns="http://www.w3.org/2000/svg">

    <symbol id="logo" width="177" height="34">
        <path d="M31.3 25.6l-5.84 5.9H3.86l-1.75-1.78V7.9L7.94 2h21.6l1.75 1.78V25.6z" fill="#ED1C24"/>
        <path d="M29.54 2l-6.57 6.63v9.69l-5.37-7.47H6.26v2.35H9.6v8.95l-7.49 7.57v1.78h1.76l8.25-8.34V13.2h3.34v9.45h2.49v-7.47l5.37 7.47h2.14V9.68l5.84-5.9V2h-1.76z" fill="#fff"/>
        <path d="M40.63 14.1h-3.5v-2.86h10.24v2.86h-3.5v8.93h-3.24V14.1zM49.07 11.24h9.39v2.78h-6.19v1.79h5.6v2.57h-5.6v1.87h6.27v2.79h-9.47v-11.8zM63.87 17.03l-3.84-5.8h3.72l2.07 3.33 2.09-3.32h3.63L67.71 17l4 6.04h-3.72l-2.24-3.56-2.25 3.55h-3.63l4-6zM73.24 11.24h3.23v4.41h4.16v-4.41h3.23v11.8h-3.23v-4.49h-4.16v4.48h-3.23v-11.8zM85.8 17.14c0-3.4 2.7-6.14 6.3-6.14a6.15 6.15 0 11-.03 12.27 6.1 6.1 0 01-6.27-6.13zm9.28 0c0-1.7-1.22-3.2-3-3.2-1.77 0-2.96 1.46-2.96 3.2 0 1.7 1.22 3.18 2.99 3.18 1.78 0 2.97-1.45 2.97-3.18zM100.34 11.24h3.24v4.41h4.15v-4.41h3.23v11.8h-3.23v-4.49h-4.15v4.48h-3.24v-11.8zM113.48 11.24h3.2v6.64l4.52-6.64h3.02v11.8h-3.2v-6.65l-4.52 6.64h-3.02v-11.8zM126.74 11.24h3.23v4.78l4.02-4.78h3.84l-4.42 5.07 4.57 6.73h-3.89l-2.93-4.39-1.19 1.33v3.06h-3.23v-11.8zM138 17.14c0-3.4 2.7-6.14 6.3-6.14a6.15 6.15 0 11-.03 12.27 6.1 6.1 0 01-6.27-6.13zm9.28 0c0-1.7-1.22-3.2-3-3.2-1.77 0-2.96 1.46-2.96 3.2 0 1.7 1.22 3.18 2.99 3.18 1.78 0 2.97-1.45 2.97-3.18zM165.03 11.24h3.24v3.7h1.77c2.8 0 4.85 1.35 4.85 4.01 0 2.55-1.83 4.09-4.68 4.09h-5.18v-11.8zm4.93 9.05c1.06 0 1.7-.5 1.7-1.42 0-.82-.64-1.36-1.69-1.36h-1.7v2.78h1.69zM153.44 11.24v5.17c0 1.23-.12 3-.92 3.62-.37.3-1 .52-1.38.52v2.78h.3c1.12 0 2.38-.45 2.86-.76 1.95-1.25 2.19-3.64 2.19-6.33V14.1h2.8v8.93h3.23v-11.8h-9.08z" fill="inherit"/>
    </symbol>

    <symbol id="search" width="28" height="28">
        <path fill-rule="evenodd" clip-rule="evenodd" d="M19.5161 18.5967C22.9702 14.6688 22.8219 8.67973 19.0711 4.92893C15.1658 1.02369 8.83418 1.02369 4.92893 4.92893C1.02369 8.83418 1.02369 15.1658 4.92893 19.0711C8.51046 22.6526 14.1328 22.9495 18.0527 19.9617L23.8692 25.7782C24.2597 26.1687 24.8928 26.1687 25.2834 25.7782C25.6739 25.3877 25.6739 24.7545 25.2834 24.364L19.5161 18.5967ZM17.6569 6.34315C20.781 9.46734 20.781 14.5327 17.6569 17.6569C14.5327 20.781 9.46734 20.781 6.34315 17.6569C3.21895 14.5327 3.21895 9.46734 6.34315 6.34315C9.46734 3.21895 14.5327 3.21895 17.6569 6.34315Z" fill="inherit"/>
    </symbol>

    <symbol id="clip" viewBox="0 0 6.43 6.43" shape-rendering="geometricPrecision"
         text-rendering="geometricPrecision" image-rendering="optimizeQuality" fill-rule="evenodd" clip-rule="evenodd">
        <path d="M6.43 0v6.43H0c.61 0 1.19-.24 1.62-.67l4.14-4.14c.43-.43.67-1.01.67-1.62z" fill="inherit"/>
    </symbol>

    <symbol id="edit" width="30" height="30" fill="none">
        <g opacity="0.2">
            <path d="M22.4595 3.46094L26.0401 7.04156L11.7176 21.3641L8.13697 17.7834L22.4595 3.46094Z" fill="#1B1B1D"/>
            <path d="M10.5241 22.5576L6.94343 18.977L5.74989 23.7511L10.5241 22.5576Z" fill="#1B1B1D"/>
        </g>
    </symbol>

    <symbol id="password" width="30" height="30" fill="none">
        <g opacity="0.3">
            <path d="M18 10C18 8.34315 16.6569 7 15 7C13.3431 7 12 8.34315 12 10H9C9 6.68629 11.6863 4 15 4C18.3137 4 21 6.68629 21 10L18 10Z" fill="#1B1B1D"/>
            <path fill-rule="evenodd" clip-rule="evenodd" d="M8 12C6.89543 12 6 12.8954 6 14V19C6 22.3137 8.68629 25 12 25H18C21.3137 25 24 22.3137 24 19V14C24 12.8954 23.1046 12 22 12H8ZM15 20C16.1046 20 17 19.1046 17 18C17 16.8954 16.1046 16 15 16C13.8954 16 13 16.8954 13 18C13 19.1046 13.8954 20 15 20Z" fill="#1B1B1D"/>
        </g>
    </symbol>

    <symbol id="time" viewBox="0 0 28 28" fill="none">
        <circle cx="14" cy="14" r="10" stroke="inherit" stroke-width="2"/>
        <path d="M14 9V16H19" stroke="inherit" stroke-width="2"/>
    </symbol>

    <symbol id="view" viewBox="0 0 28 28" fill="none">
        <path d="M2.77339 14.5906C2.57806 14.3679 2.41013 14.1686 2.27163 14C2.41013 13.8314 2.57806 13.6321 2.77339 13.4094C3.40784 12.6861 4.3251 11.7227 5.45532 10.7619C7.74576 8.81468 10.7669 7 14 7C17.2331 7 20.2542 8.81468 22.5447 10.7619C23.6749 11.7227 24.5922 12.6861 25.2266 13.4094C25.4219 13.6321 25.5899 13.8314 25.7284 14C25.5899 14.1686 25.4219 14.3679 25.2266 14.5906C24.5922 15.3139 23.6749 16.2773 22.5447 17.2381C20.2542 19.1853 17.2331 21 14 21C10.7669 21 7.74576 19.1853 5.45532 17.2381C4.3251 16.2773 3.40784 15.3139 2.77339 14.5906Z" stroke="inherit" stroke-width="2"/>
        <circle cx="14" cy="14" r="3" stroke="inherit" stroke-width="2"/>
    </symbol>

    <symbol id="like" width="20" height="20">
        <path opacity="0.2" d="M2.22949 7.53298C2.26754 7.22864 2.52528 6.99963 2.83199 6.99767L4.12534 6.9894C4.46438 6.98723 4.74038 7.26147 4.74038 7.60051L4.74037 16.7791L1.766 16.7791C1.39841 16.7791 1.114 16.4569 1.15959 16.0922L2.22949 7.53298ZM18.9999 9.07976C18.9999 9.19983 18.9823 9.31924 18.9474 9.43415L16.6484 17.0223C16.4768 17.5889 15.9238 17.951 15.3359 17.8818L5.96272 16.7791L5.96272 7.22821C5.96272 7.0723 6.02231 6.9223 6.12928 6.80888L11.0132 1.63093C11.2143 1.41773 11.4944 1.29688 11.7875 1.29688C12.5271 1.29688 13.0412 2.03255 12.7871 2.72708L11.7195 5.64405C11.6679 5.79715 11.6535 5.96036 11.6775 6.12014C11.7015 6.27993 11.7633 6.43168 11.8577 6.56282C11.9521 6.69395 12.0764 6.8007 12.2203 6.8742C12.3642 6.94771 12.5235 6.98585 12.6851 6.98547L17.7777 6.98547C18.4527 6.98547 18.9999 7.53269 18.9999 8.20772L18.9999 9.07976Z" fill="#1B1B1D"/>
    </symbol>

    <symbol id="play" viewBox="0 0 71 71" fill="none">
        <circle cx="35.5" cy="35.5" r="35.5" fill="#DD4343"/>
        <path d="M52 35.5L27.25 49.7894L27.25 21.2106L52 35.5Z" fill="white"/>
    </symbol>

    <symbol id="vote" width="16" height="14" viewBox="0 0 16 14" fill="none">
        <g opacity="0.5">
            <path d="M0.571408 14H3.99986C4.30975 14 4.57127 13.7777 4.57127 13.3399L5.39714 13.902C5.49085 13.9658 5.60133 14 5.71408 14H12.8411C13.6016 14 14.2791 13.4779 14.4883 12.7305L15.9107 7.64089C16.3276 6.14911 15.2326 4.66667 13.7149 4.66667H10.8568V1.76536C10.8568 0.791778 10.0812 0 9.12749 0C8.5997 0 8.10752 0.241305 7.77706 0.662472L4.45032 4.90778C4.34632 4.76506 4.18766 4.66667 3.99986 4.66667H0.571408C0.25561 4.66667 0 4.92781 0 5.25V13.4167C0 13.7389 0.25561 14 0.571408 14ZM8.66941 1.39144C8.7814 1.24872 8.94826 1.16667 9.12749 1.16667C9.45109 1.16667 9.71394 1.4352 9.71394 1.76536V5.25C9.71394 5.57219 9.96955 5.83333 10.2854 5.83333H13.7149C14.4719 5.83333 15.02 6.57358 14.8115 7.32064L13.3891 12.4102C13.3199 12.6593 13.0944 12.8333 12.8411 12.8333H5.88703L4.57127 11.9379V6.62122L8.66941 1.39144ZM1.14282 5.83333H3.42845C3.42845 8.16997 3.42845 10.5017 3.42845 12.8333H1.14282V5.83333Z" fill="black"/>
            <path d="M2.85705 11.0833C2.85705 11.4055 2.60125 11.6667 2.28564 11.6667C1.97003 11.6667 1.71423 11.4055 1.71423 11.0833C1.71423 10.7611 1.97003 10.5 2.28564 10.5C2.60125 10.5 2.85705 10.7611 2.85705 11.0833Z" fill="black"/>
        </g>
    </symbol>

    <symbol id="login" viewBox="0 0 28 28">
        <path fill-rule="evenodd" clip-rule="evenodd" d="M18.9498 4.05025C21.6835 6.78392 21.6835 11.2161 18.9498 13.9497C18.6357 14.2638 18.2993 14.5418 17.9455 14.7837C19.3637 15.3682 20.6924 16.2797 21.8316 17.5182C23.7421 19.5951 24.7917 22.2365 24.9971 24.9238C25.0392 25.4744 24.627 25.955 24.0763 25.9971C23.5256 26.0392 23.0451 25.6269 23.003 25.0762C22.8289 22.8003 21.9422 20.5927 20.3597 18.8722C16.837 15.0426 11.1631 15.0426 7.64044 18.8722C6.05785 20.5927 5.17116 22.8003 4.99714 25.0762C4.95503 25.6269 4.47449 26.0392 3.92381 25.9971C3.37313 25.955 2.96085 25.4744 3.00296 24.9238C3.20843 22.2365 4.25801 19.5951 6.16846 17.5182C7.3077 16.2797 8.63641 15.3682 10.0546 14.7837C9.70083 14.5418 9.36435 14.2638 9.0503 13.9497C6.31663 11.2161 6.31663 6.78392 9.0503 4.05025C11.784 1.31658 16.2161 1.31658 18.9498 4.05025ZM17.5356 5.46447C19.4882 7.41709 19.4882 10.5829 17.5356 12.5355C15.583 14.4882 12.4171 14.4882 10.4645 12.5355C8.51189 10.5829 8.51189 7.41709 10.4645 5.46447C12.4171 3.51184 15.583 3.51184 17.5356 5.46447Z" fill="#1D1D1B"/>
    </symbol>

</svg>
